<?xml version="1.0" standalone="no"?>
<!DOCTYPE svg PUBLIC "-//W3C//DTD SVG 20010904//EN"
 "http://www.w3.org/TR/2001/REC-SVG-20010904/DTD/svg10.dtd">
<svg version="1.0" xmlns="http://www.w3.org/2000/svg"
 width="23.040000pt" height="23.040000pt" viewBox="0 0 23.040000 23.040000"
 preserveAspectRatio="xMidYMid meet">
<metadata>
Created by potrace 1.16, written by Peter Selinger 2001-2019
</metadata>
<g transform="translate(0.000000,23.040000) scale(0.024000,-0.024000)"
fill="#000000" stroke="none">
<path d="M369 600 c-24 -16 -51 -30 -60 -30 -13 0 -18 -14 -23 -63 -7 -66 -1
-117 15 -117 5 0 9 17 9 38 0 21 7 48 16 60 8 12 11 22 5 22 -5 0 -15 -8 -20
-17 -8 -15 -10 -13 -8 12 2 23 13 37 50 63 27 18 50 32 52 30 1 -2 5 -20 9
-41 l7 -38 -20 20 c-23 23 -37 26 -46 11 -3 -5 1 -10 9 -10 8 0 26 -15 40 -32
15 -19 26 -27 26 -18 0 11 4 10 18 -4 12 -14 14 -20 4 -23 -6 -3 -10 -9 -7
-13 3 -5 -3 -8 -14 -7 -12 1 -22 11 -26 24 -3 12 -15 28 -27 34 -33 18 -58
-19 -58 -83 0 -58 13 -88 39 -88 24 0 42 22 51 63 8 31 8 31 9 5 1 -26 4 -28
42 -28 32 0 40 -3 35 -15 -3 -8 -3 -15 -1 -15 11 0 43 39 50 59 3 12 15 21 25
21 10 0 20 6 22 12 3 8 9 4 17 -10 10 -18 9 -26 -4 -44 -8 -13 -15 -17 -15
-10 0 6 -7 12 -15 12 -17 0 -19 -18 -6 -38 13 -21 45 -10 55 19 11 33 -1 98
-20 106 -8 3 -24 -3 -34 -12 -11 -10 -20 -14 -20 -8 0 18 39 46 55 39 19 -7
35 -47 35 -87 0 -22 5 -29 20 -29 18 0 20 7 20 56 0 48 -4 59 -29 85 -16 16
-40 29 -53 29 -15 0 -39 16 -66 45 -53 57 -96 61 -163 15z"/>
</g>
</svg>
